<svg width="16" height="16" viewBox="0 0 16 16" fill="none" xmlns="http://www.w3.org/2000/svg">
<path d="M8 0C3.58 0 0 3.58 0 8C0 12.42 3.58 16 8 16C12.42 16 16 12.42 16 8C16 3.58 12.42 0 8 0ZM11.1 10.2C11.34 10.44 11.34 10.84 11.1 11.08C10.98 11.2 10.82 11.26 10.66 11.26C10.5 11.26 10.34 11.2 10.22 11.08L8.02 8.88L5.82 11.08C5.7 11.2 5.54 11.26 5.38 11.26C5.22 11.26 5.06 11.2 4.94 11.08C4.7 10.84 4.7 10.44 4.94 10.2L7.14 8L4.94 5.8C4.7 5.56 4.7 5.16 4.94 4.92C5.18 4.68 5.58 4.68 5.82 4.92L8.02 7.12L10.22 4.92C10.46 4.68 10.86 4.68 11.1 4.92C11.34 5.16 11.34 5.56 11.1 5.8L8.9 8L11.1 10.2Z" fill="#ED2024"/>
</svg>
